<svg viewBox="0 0 36 36" fill="none" xmlns="http://www.w3.org/2000/svg">
<mask id="mask0_960_168436" style="mask-type:alpha" maskUnits="userSpaceOnUse" x="0" y="0" width="36" height="36">
<circle cx="17.8351" cy="17.8351" r="17.8351"/>
</mask>
<g mask="url(#mask0_960_168436)">
<path d="M35.6663 17.8351C35.6663 27.6851 27.6812 35.6702 17.8312 35.6702C7.98114 35.6702 -0.00390625 27.6851 -0.00390625 17.8351C-0.00390625 7.98504 7.98114 0 17.8312 0C27.6812 0 35.6663 7.98504 35.6663 17.8351ZM2.27627 17.8351C2.27627 26.4258 9.24045 33.39 17.8312 33.39C26.4219 33.39 33.3861 26.4258 33.3861 17.8351C33.3861 9.24435 26.4219 2.28018 17.8312 2.28018C9.24045 2.28018 2.27627 9.24435 2.27627 17.8351Z" fill="white"/>
<path d="M22.3911 13.3571C30.572 21.9853 35.1279 30.9481 32.5671 33.3762C30.0063 35.8043 21.2984 30.7781 13.1175 22.15C4.93662 13.5218 0.380646 4.55899 2.94147 2.13091C5.50229 -0.297168 14.2102 4.72898 22.3911 13.3571ZM14.5194 20.8208C20.2269 26.8403 26.3021 30.3469 28.0887 28.6529C29.8753 26.9589 26.6967 20.7059 20.9892 14.6863C15.2817 8.66677 9.20651 5.16021 7.41992 6.85419C5.63332 8.54818 8.81186 14.8012 14.5194 20.8208Z" fill="white"/>
<path d="M26.9691 9.15921C34.5165 17.1193 36.5411 27.4538 31.4911 32.242C26.4411 37.0302 16.2289 34.4589 8.68145 26.4989C1.13402 18.5388 -0.890554 8.20432 4.15943 3.41611C9.20941 -1.3721 19.4216 1.19917 26.9691 9.15921ZM10.2743 24.9886C16.507 31.562 24.9402 33.6853 29.1105 29.7312C33.2808 25.7771 31.6089 17.2429 25.3762 10.6695C19.1435 4.0961 10.7103 1.97274 6.54002 5.92685C2.36974 9.88095 4.04164 18.4152 10.2743 24.9886Z" fill="white"/>
</g>

  <style>
    path, circle {
      fill: #000;
    }

    @media (prefers-color-scheme: dark) {
      path, circle {
        fill: #fff;
      }
    }
  </style>
</svg>
