<?xml version="1.0"?><svg fill="#000000" xmlns="http://www.w3.org/2000/svg" viewBox="0 0 64 64" width="64px" height="64px">    <path d="M52.42,11.407C46.949,5.982,39.704,3,32.005,3c-0.042,0-0.085,0-0.127,0c-7.746,0.033-15.017,3.08-20.471,8.581 C5.953,17.082,2.967,24.377,3,32.123c0.033,7.746,3.08,15.016,8.58,20.47C17.051,58.018,24.296,61,31.995,61 c0.042,0,0.085,0,0.127,0c7.746-0.033,15.017-3.08,20.471-8.581c5.454-5.501,8.44-12.796,8.407-20.542 C60.967,24.131,57.92,16.861,52.42,11.407z M32.114,59c-1.3,0.004-2.585-0.086-3.851-0.261V38.626h-6.186v-6.572h6.186v-4.373 c0-7.24,3.527-10.418,9.544-10.418c2.882,0,4.405,0.214,5.127,0.311v5.736h-4.104c-2.554,0-3.446,2.422-3.446,5.152v3.592h7.486 l-1.016,6.572h-6.47v20.157C34.307,58.917,33.217,58.995,32.114,59z M51.173,51.011c-3.817,3.85-8.59,6.408-13.789,7.454V40.626 h4.47c0.987,0,1.826-0.719,1.977-1.694l1-6.468c0.028-0.132,0.042-0.269,0.042-0.409c0-1.105-0.893-2-1.997-2h-0.005h-5.486v-1.592 c0-1.177,0.188-3.152,1.446-3.152h4.104c1.105,0,2-0.895,2-2v-5.736c0-1.001-0.74-1.848-1.733-1.982 c-0.82-0.111-2.435-0.329-5.394-0.329c-7.444,0-11.544,4.41-11.544,12.418v2.373h-4.186c-1.105,0-2,0.895-2,2v6.572 c0,1.105,0.895,2,2,2h4.186v17.756c-4.982-1.074-9.568-3.534-13.274-7.209C7.867,46.095,5.03,39.326,5,32.114 c-0.03-7.212,2.749-14.004,7.827-19.125C17.905,7.868,24.674,5.031,31.886,5c0.04,0,0.079,0,0.119,0 c7.167,0,13.913,2.777,19.006,7.827C56.133,17.905,58.97,24.674,59,31.886C59.03,39.098,56.251,45.89,51.173,51.011z M52.834,43.914 c-0.001,0.001-0.002,0.003-0.002,0.003c-0.276,0.477-0.884,0.642-1.363,0.368l-1.736-0.992c-0.479-0.274-0.646-0.885-0.372-1.364 c0.001-0.002,0.002-0.003,0.003-0.004c0.276-0.477,0.884-0.642,1.363-0.368l1.736,0.992C52.942,42.824,53.109,43.434,52.834,43.914z M55.059,38.478c-0.023,0.088-0.057,0.17-0.101,0.247c-0.22,0.381-0.674,0.584-1.12,0.466l-1.934-0.51 c-0.535-0.14-0.852-0.687-0.712-1.222c0.142-0.53,0.687-0.853,1.222-0.712l1.933,0.509C54.881,37.396,55.199,37.943,55.059,38.478z M44.994,50.817c0.187,0.32,0.174,0.704,0.001,1.004c-0.084,0.146-0.207,0.272-0.362,0.363c-0.478,0.277-1.09,0.116-1.368-0.36 l-1.007-1.728c-0.278-0.477-0.117-1.089,0.36-1.367c0.477-0.279,1.09-0.118,1.369,0.361L44.994,50.817z M55.803,32.652 c0,0.184-0.048,0.356-0.134,0.504c-0.172,0.298-0.493,0.498-0.863,0.5l-2,0.008c-0.552,0.002-1.002-0.443-1.004-0.995 c-0.003-0.555,0.442-1.002,0.996-1.005l2.001-0.007C55.352,31.655,55.801,32.1,55.803,32.652z M49.272,47.176 c0.33,0.327,0.384,0.827,0.163,1.21c-0.043,0.074-0.096,0.142-0.157,0.205c-0.389,0.392-1.022,0.395-1.414,0.005l-1.42-1.409 c-0.393-0.39-0.387-1.028-0.005-1.414c0.389-0.392,1.022-0.394,1.414-0.005L49.272,47.176z M27.16,9.613 c0.091,0.38-0.049,0.764-0.33,1c-0.115,0.097-0.252,0.169-0.408,0.206c-0.744,0.179-1.482,0.4-2.196,0.658 c-0.521,0.187-1.094-0.082-1.28-0.601c-0.188-0.52,0.083-1.093,0.601-1.28c0.784-0.282,1.593-0.525,2.406-0.72 C26.491,8.746,27.031,9.076,27.16,9.613z M20.82,11.895c0.286,0.472,0.14,1.079-0.338,1.374c-4.092,2.481-7.242,6.31-8.868,10.784 c-0.062,0.171-0.165,0.314-0.295,0.423c-0.265,0.223-0.638,0.303-0.984,0.176c-0.52-0.188-0.787-0.762-0.599-1.282 c1.78-4.901,5.227-9.096,9.71-11.813C19.919,11.272,20.535,11.423,20.82,11.895z"/></svg>